<svg width="27" height="28" viewBox="0 0 27 28" fill="none" xmlns="http://www.w3.org/2000/svg">
<path d="M25.5 23.3333V21.1388C25.5 20.0483 24.8361 19.0678 23.8237 18.6628L21.1115 17.5779C19.8238 17.0629 18.3563 17.6208 17.736 18.8613L17.5 19.3333C17.5 19.3333 14.1667 18.6667 11.5 16C8.83333 13.3333 8.16667 10 8.16667 10L8.63869 9.76399C9.87917 9.14375 10.4371 7.67618 9.92206 6.38848L8.83718 3.67629C8.43221 2.66387 7.45166 2 6.36125 2H4.16667C2.69391 2 1.5 3.19391 1.5 4.66667C1.5 16.4487 11.0513 26 22.8333 26C24.3061 26 25.5 24.8061 25.5 23.3333Z" stroke="#141718" stroke-width="2.5" stroke-linejoin="round"/>
</svg>
